<?xml version="1.0" encoding="UTF-8"?>
<svg id="Layer_4" data-name="Layer 4" xmlns="http://www.w3.org/2000/svg" viewBox="0 0 287.64 296.18">
  <path d="M187.05,13.88l-25.69-6.42h-31.74v198.15c-50.88-4.11-83.45-31.93-85.82-73.38H0c4.75,65.12,55.06,107.72,129.61,111.86v52.09h31.39v-52.09c77.53-5.92,126.64-51.48,126.64-119.55,0-56.8-33.73-94.08-100.6-110.66ZM161,205.61V48.78l17.15,4.15c45.57,10.66,67.46,35.5,67.46,73.98,0,43.8-32.56,73.38-84.62,78.7Z"/>
  <path d="M187.05,13.88l-25.69-6.42h-31.74v198.15c-50.88-4.11-83.45-31.93-85.82-73.38H0c4.75,65.12,55.06,107.72,129.61,111.86v52.09h31.39v-52.09c77.53-5.92,126.64-51.48,126.64-119.55,0-56.8-33.73-94.08-100.6-110.66ZM161,205.61V48.78l17.15,4.15c45.57,10.66,67.46,35.5,67.46,73.98,0,43.8-32.56,73.38-84.62,78.7Z"/>
</svg>