<svg viewBox="0 0 89 89" fill="none" xmlns="http://www.w3.org/2000/svg">
  <rect y="2.91238" width="83.177" height="83.1759" rx="41.588" fill="#0058D3"/>
  <path d="M20.8124 35.0323C23.7746 35.0323 26.176 32.63 26.176 29.6666C26.176 26.7032 23.7746 24.3009 20.8124 24.3009C17.8501 24.3009 15.4487 26.7032 15.4487 29.6666C15.4487 32.63 17.8501 35.0323 20.8124 35.0323Z" fill="white"/>
  <path d="M20.8129 49.8659C23.7755 49.8659 26.1771 47.4634 26.1771 44.4997C26.1771 41.536 23.7755 39.1334 20.8129 39.1334C17.8504 39.1334 15.4487 41.536 15.4487 44.4997C15.4487 47.4634 17.8504 49.8659 20.8129 49.8659Z" fill="#27E4F5"/>
  <path d="M20.8124 64.6998C23.7746 64.6998 26.176 62.2975 26.176 59.3341C26.176 56.3707 23.7746 53.9684 20.8124 53.9684C17.8501 53.9684 15.4487 56.3707 15.4487 59.3341C15.4487 62.2975 17.8501 64.6998 20.8124 64.6998Z" fill="white"/>
  <path d="M28.5483 44.6312L51.7863 24.3009H66.678L44.132 44.0588L67.7276 64.6978H51.3996L28.5483 44.6312Z" fill="white"/>
</svg>
